# xmcd
#
# Track frame offsets: 
#        150
#        21600
#        41700
#        64875
#        78975
#        101625
#        120075
#        135525
#
# Disc length: 2023 seconds
#
# Revision: 0
# Processed by: cddbd v1.5.2PL0 Copyright (c) Steve Scherf et al.
# Submitted via: ExactAudioCopy v0.95a5
#
DISCID=6607e508
DTITLE=Various Artist - “π¿ª»Àæ≤
DYEAR=1990
DGENRE=Folk
TTITLE0=—Ó¥‰œ≤
TTITLE1=∫Ï÷Ú¿·
TTITLE2=”Ê∏Ë≥™ÕÌ
TTITLE3=Ï¯‘∫÷”…˘
TTITLE4=¿◊∑Âœ¶’’
TTITLE5=√‘¿Î
TTITLE6=¡˜ÀÆ––‘∆
TTITLE7=∫˙≤ªπÈ
EXTD=
EXTT0=
EXTT1=
EXTT2=
EXTT3=
EXTT4=
EXTT5=
EXTT6=
EXTT7=
PLAYORDER=
